<svg xmlns="http://www.w3.org/2000/svg" viewBox="0 0 1200 630" fill="none">
  <title>PartyHause</title>
  <defs><linearGradient id="og" x1="0" y1="0" x2="1" y2="1"><stop offset="0" stop-color="#FF5233"/><stop offset="1" stop-color="#EC4699"/></linearGradient></defs>
  <rect width="1200" height="630" fill="url(#og)"/>
  <g transform="translate(275.29 224.6) scale(2.6)"><path d="M 23.016 3.947 L 39.423 17.839 L 9.561 20.714 Z" fill="#FFFFFF" stroke="#FFFFFF" stroke-width="1.8" stroke-linejoin="round"/>
  <path d="M 14.5 22.0 H 33.5 A 2.0 2.0 0 0 1 35.5 24.0 V 40.0 A 2.0 2.0 0 0 1 33.5 42.0 H 14.5 A 2.0 2.0 0 0 1 12.5 40.0 V 24.0 A 2.0 2.0 0 0 1 14.5 22.0 Z M 20.5 42.0 V 34.9 A 3.5 3.5 0 0 1 27.5 34.9 V 42.0 Z" fill="#FFFFFF" fill-rule="evenodd"/>
  <circle cx="41.0" cy="10.2" r="1.9" fill="#FFFFFF"/>
  <circle cx="36.8" cy="4.4" r="1.25" fill="#FFFFFF"/>
  <circle cx="7.4" cy="12.4" r="1.55" fill="#FFFFFF"/></g>
  <g transform="translate(423.7 315.16) scale(0.094675)"><path d="M188 -257V-379H340Q369.27456647398844 -379.0 392.8887283236994 -390.9015151515151Q416.5028901734104 -402.8030303030303 430.5014450867052 -425.7833333333333Q444.5 -448.76363636363635 444.5 -481.5Q444.5 -514.2363636363636 430.5014450867052 -537.2166666666667Q416.5028901734104 -560.1969696969697 392.8887283236994 -572.0984848484849Q369.27456647398844 -584.0 340 -584H188V-706H362.5Q430 -706 484.0 -678.75Q538.0 -651.5 569.5 -601.3475609756098Q601.0 -551.1951219512196 601.0 -481.5975609756098Q601.0 -412.5 569.5 -362.0Q538.0 -311.5 484.0 -284.25Q430 -257 362.5 -257.0ZM67.5 0.0V-706.0H225V0Z M851 10Q784 10 731.25 -23.0Q678.5 -56.0 648.25 -113.0Q618 -170 618.0 -242.5Q618.0 -315.5 648.25 -372.75Q678.5 -430.0 731.25 -463.0Q784 -496 851 -496Q900 -496 939.5 -477.0Q979 -458 1003.75 -424.5Q1028.5 -391.0 1032 -348V-138Q1028.5 -95.0 1004.0 -61.5Q979.5 -28.0 939.75 -9.0Q900 10 851 10ZM882 -128Q931 -128 961.0 -160.25Q991.0 -192.5 991 -243Q991 -277 977.5 -302.75Q964.0 -328.5 939.5 -343.25Q915 -358 882.5 -358.0Q850.5 -358.0 826.0 -343.25Q801.5 -328.5 787.25 -302.5Q773.0 -276.5 773 -243Q773.0 -209.5 787.0 -183.5Q801.0 -157.5 825.75 -142.75Q850.5 -128.0 882 -128ZM984.5 0.0V-130.5L1007.5 -249.0L984.5 -366.5V-486.0H1135V0Z M1229 0V-486H1382V0ZM1382.0 -266.5 1317.5 -316.5Q1336.5 -402.0 1381.9969325153374 -449.0Q1427.493865030675 -496.0 1506.5 -496.0Q1541.5 -496.0 1568.25 -485.5Q1595 -475 1615 -453L1524 -338Q1514 -349 1499.1944444444443 -354.75Q1484.388888888889 -360.5 1465.0 -360.5Q1427.0 -360.5 1404.5 -337.125786163522Q1382.0 -313.751572327044 1382.0 -266.5Z M1716 0V-687H1869V0ZM1606 -356V-486H1979V-356Z M2181.5 2.5 1982 -486H2146.5L2273.5 -98.5H2213.0L2343 -486H2507.5L2299.5 2.5ZM2056.5 205.0 2202.5 -110.0 2299.5 2.5 2213.5 205.0Z M2565.5 0.0V-706.0H2723V0ZM3003 0V-706H3160.5V0.0ZM2659.5 -295.0V-430.5H3054.5V-295.0Z M3471 10Q3404 10 3351.25 -23.0Q3298.5 -56.0 3268.25 -113.0Q3238 -170 3238.0 -242.5Q3238.0 -315.5 3268.25 -372.75Q3298.5 -430.0 3351.25 -463.0Q3404 -496 3471 -496Q3520 -496 3559.5 -477.0Q3599 -458 3623.75 -424.5Q3648.5 -391.0 3652 -348V-138Q3648.5 -95.0 3624.0 -61.5Q3599.5 -28.0 3559.75 -9.0Q3520 10 3471 10ZM3502 -128Q3551 -128 3581.0 -160.25Q3611.0 -192.5 3611 -243Q3611 -277 3597.5 -302.75Q3584.0 -328.5 3559.5 -343.25Q3535 -358 3502.5 -358.0Q3470.5 -358.0 3446.0 -343.25Q3421.5 -328.5 3407.25 -302.5Q3393.0 -276.5 3393 -243Q3393.0 -209.5 3407.0 -183.5Q3421.0 -157.5 3445.75 -142.75Q3470.5 -128.0 3502 -128ZM3604.5 0.0V-130.5L3627.5 -249.0L3604.5 -366.5V-486.0H3755V0Z M4064.5 11.0Q3998.1978417266187 11.0 3946.598920863309 -16.5Q3895 -44 3865.75 -92.67303102625299Q3836.5 -141.34606205250597 3836.5 -204.39251411607194V-486.0H3989.5V-206.0Q3989.5 -180.92285714285714 3998.4375 -162.8042857142857Q4007.375 -144.68571428571428 4024.4278846153848 -134.84285714285716Q4041.480769230769 -125.0 4064.6637931034484 -125.0Q4099 -125 4119.0 -146.53Q4139.0 -168.06 4139 -206V-486H4292V-204.5Q4292.0 -140.5 4263.0 -92.0Q4234.0 -43.5 4182.78417266187 -16.25Q4131.568345323741 11.0 4064.5 11.0Z M4550.5 12.5Q4507.5 12.5 4466.0 1.25Q4424.5 -10.0 4389.25 -30.25Q4354.0 -50.5 4329 -78L4415.5 -166.0Q4440.0 -139.5 4473.0 -125.25Q4506 -111 4545 -111Q4572 -111 4586.25 -118.75Q4600.5 -126.5 4600.5 -141.0Q4600.5 -159.0 4583.25 -168.5Q4566 -178 4539.0 -185.25Q4512.0 -192.5 4482.0 -201.75Q4452 -211 4424.75 -227.0Q4397.5 -243.0 4380.5 -271.25Q4363.5 -299.5 4363.5 -344.0Q4363.5 -390.5 4387.5 -425.25Q4411.5 -460.0 4455.5 -479.75Q4499.5 -499.5 4559.0 -499.5Q4620.5 -499.5 4673.25 -478.25Q4726 -457 4759.0 -414.5L4672.0 -326.5Q4649.0 -353.5 4620.5 -364.75Q4592 -376 4564.5 -376.0Q4538.5 -376.0 4525.75 -368.25Q4513.0 -360.5 4513 -347Q4513.0 -331.5 4530.0 -322.5Q4547.0 -313.5 4574.0 -306.5Q4601.0 -299.5 4630.75 -289.75Q4660.5 -280.0 4687.5 -262.75Q4714.5 -245.5 4731.5 -217.0Q4748.5 -188.5 4748.5 -143.0Q4748.5 -71.5 4695.0 -29.5Q4641.5 12.5 4550.5 12.5Z M5057.5 11.0Q4978.5 11.0 4917.25 -21.5Q4856 -54 4821.0 -111.75Q4786.0 -169.5 4786 -243Q4786 -316 4820.25 -373.25Q4854.5 -430.5 4913.75 -463.75Q4973 -497 5046.5 -497.0Q5118.5 -497.0 5173.75 -465.75Q5229.0 -434.5 5260.5 -379.5Q5292.0 -324.5 5292 -254Q5292.0 -240.5 5290.5 -226.0Q5289.0 -211.5 5285 -193L4866.0 -191.5V-296.5L5220 -298L5154.0 -253.5Q5153.0 -295.5 5140.75 -323.25Q5128.5 -351.0 5105.25 -365.5Q5082 -380 5047.5 -380.0Q5011.5 -380.0 4985.0 -363.5Q4958.5 -347.0 4944.25 -316.75Q4930.0 -286.5 4930 -244Q4930 -201 4945.25 -170.25Q4960.5 -139.5 4989.0 -123.25Q5017.5 -107.0 5057 -107Q5093 -107 5122.0 -119.25Q5151.0 -131.5 5173.0 -156.5L5257.0 -72.5Q5221 -31 5170.0 -10.0Q5119 11 5057.5 11.0Z" fill="#FFFFFF"/></g>
  <g transform="translate(435.48 421.4) scale(0.036982)"><path d="M155 -264V-364H330Q365.5491329479769 -364.0 393.2774566473988 -378.3030303030303Q421.0057803468208 -392.6060606060606 437.0028901734104 -419.06666666666666Q453.0 -445.5272727272727 453 -482Q453.0 -518.4727272727273 437.0028901734104 -544.9333333333334Q421.0057803468208 -571.3939393939394 393.2774566473988 -585.6969696969697Q365.5491329479769 -600.0 330 -600H155V-700H336Q402 -700 454.5 -673.0Q507 -646 537.5 -597.1951219512196Q568.0 -548.390243902439 568.0 -482.1951219512195Q568 -416 537.5 -367.0Q507 -318 454.5 -291.0Q402 -264 336 -264ZM76 0V-700H191V0Z M665 0V-720H775V0Z M1098 10Q1033 10 980.5 -23.0Q928 -56 897.5 -112.5Q867 -169 867 -239Q867 -310 897.5 -366.5Q928 -423 980.5 -456.5Q1033 -490 1098 -490Q1153 -490 1195.5 -466.5Q1238 -443 1263.0 -402.0Q1288 -361 1288 -309V-171Q1288 -119 1263.5 -78.0Q1239 -37 1196.0 -13.5Q1153 10 1098 10ZM1116 -94Q1177 -94 1214.5 -135.0Q1252 -176 1252 -240Q1252 -283 1235.0 -316.0Q1218 -349 1187.5 -367.5Q1157 -386 1116 -386Q1076 -386 1045.5 -367.5Q1015 -349 997.5 -316.0Q980 -283 980 -240Q980 -197 997.5 -164.0Q1015 -131 1045.5 -112.5Q1076 -94 1116 -94ZM1245 0V-129L1264 -246L1245 -362V-480H1355V0Z M1806 0V-277Q1806 -325 1775.5 -356.0Q1745 -387 1697.2448979591836 -387.0Q1664.7448979591836 -387.0 1639.8724489795918 -373.0Q1615 -359 1601.0 -334.0Q1587 -309 1587 -277L1544 -301Q1544 -356 1568.0 -398.5Q1592 -441 1634.3959390862944 -465.5Q1676.791878172589 -490.0 1730.3959390862944 -490.0Q1784 -490 1826.0 -462.5Q1868 -435 1892.0 -391.5Q1916 -348 1916 -301V0ZM1477 0V-480H1587V0Z M2112 10Q2080 10 2059.5 -11.5Q2039 -33 2039 -64Q2039 -96 2059.5 -117.0Q2080 -138 2112 -138Q2144 -138 2164.5 -117.0Q2185 -96 2185 -64Q2185 -33 2164.5 -11.5Q2144 10 2112 10Z M2612 -264V-364H2787Q2822.549132947977 -364.0 2850.277456647399 -378.3030303030303Q2878.0057803468208 -392.6060606060606 2894.0028901734104 -419.06666666666666Q2910.0 -445.5272727272727 2910 -482Q2910.0 -518.4727272727273 2894.0028901734104 -544.9333333333334Q2878.0057803468208 -571.3939393939394 2850.277456647399 -585.6969696969697Q2822.549132947977 -600.0 2787 -600H2612V-700H2793Q2859 -700 2911.5 -673.0Q2964 -646 2994.5 -597.1951219512196Q3025.0 -548.390243902439 3025.0 -482.1951219512195Q3025 -416 2994.5 -367.0Q2964 -318 2911.5 -291.0Q2859 -264 2793 -264ZM2533 0V-700H2648V0Z M3299 10Q3234 10 3181.5 -23.0Q3129 -56 3098.5 -112.5Q3068 -169 3068 -239Q3068 -310 3098.5 -366.5Q3129 -423 3181.5 -456.5Q3234 -490 3299 -490Q3354 -490 3396.5 -466.5Q3439 -443 3464.0 -402.0Q3489 -361 3489 -309V-171Q3489 -119 3464.5 -78.0Q3440 -37 3397.0 -13.5Q3354 10 3299 10ZM3317 -94Q3378 -94 3415.5 -135.0Q3453 -176 3453 -240Q3453 -283 3436.0 -316.0Q3419 -349 3388.5 -367.5Q3358 -386 3317 -386Q3277 -386 3246.5 -367.5Q3216 -349 3198.5 -316.0Q3181 -283 3181 -240Q3181 -197 3198.5 -164.0Q3216 -131 3246.5 -112.5Q3277 -94 3317 -94ZM3446 0V-129L3465 -246L3446 -362V-480H3556V0Z M3678 0V-480H3788V0ZM3788 -267 3750 -286Q3750 -377 3790.5 -433.5Q3831 -490 3913 -490Q3949 -490 3978.0 -477.0Q4007 -464 4032 -435L3960 -361Q3947 -375 3931.0 -381.0Q3915 -387 3894 -387Q3848 -387 3818.0 -358.0Q3788 -329 3788 -267Z M4160 0V-680H4270V0ZM4045 -380V-480H4385V-380Z M4620 5 4415 -480H4536L4676 -124H4641L4789 -480H4911L4688 5ZM4477 200 4626 -107 4688 5 4599 200Z M4999 10Q4967 10 4946.5 -11.5Q4926 -33 4926 -64Q4926 -96 4946.5 -117.0Q4967 -138 4999 -138Q5031 -138 5051.5 -117.0Q5072 -96 5072 -64Q5072 -33 5051.5 -11.5Q5031 10 4999 10Z M5499 -264V-364H5674Q5709.549132947977 -364.0 5737.277456647399 -378.3030303030303Q5765.005780346821 -392.6060606060606 5781.00289017341 -419.06666666666666Q5797.0 -445.5272727272727 5797 -482Q5797.0 -518.4727272727273 5781.00289017341 -544.9333333333334Q5765.005780346821 -571.3939393939394 5737.277456647399 -585.6969696969697Q5709.549132947977 -600.0 5674 -600H5499V-700H5680Q5746 -700 5798.5 -673.0Q5851 -646 5881.5 -597.1951219512196Q5912.0 -548.390243902439 5912.0 -482.1951219512195Q5912 -416 5881.5 -367.0Q5851 -318 5798.5 -291.0Q5746 -264 5680 -264ZM5420 0V-700H5535V0Z M6208 10Q6136 10 6078.5 -22.5Q6021 -55 5987.5 -112.0Q5954 -169 5954 -240Q5954 -311 5987.0 -367.5Q6020 -424 6076.5 -457.0Q6133 -490 6202 -490Q6269 -490 6320.5 -459.0Q6372 -428 6401.5 -374.0Q6431 -320 6431 -251Q6431 -239 6429.5 -226.5Q6428 -214 6425 -199H6031V-289H6368L6327 -253Q6325 -297 6310.0 -327.0Q6295 -357 6267.5 -373.0Q6240 -389 6200 -389Q6158 -389 6127.0 -371.0Q6096 -353 6079.0 -320.5Q6062 -288 6062 -243Q6062 -198 6080.0 -164.0Q6098 -130 6131.0 -111.5Q6164 -93 6207 -93Q6244 -93 6275.5 -106.0Q6307 -119 6329 -144L6399 -73Q6364 -32 6314.0 -11.0Q6264 10 6208 10Z M6519 0V-480H6629V0ZM6629 -267 6591 -286Q6591 -377 6631.5 -433.5Q6672 -490 6754 -490Q6790 -490 6819.0 -477.0Q6848 -464 6873 -435L6801 -361Q6788 -375 6772.0 -381.0Q6756 -387 6735 -387Q6689 -387 6659.0 -358.0Q6629 -329 6629 -267Z M6994 0V-543Q6994 -598 7018.5 -640.0Q7043 -682 7086.5 -706.0Q7130 -730 7187 -730Q7231 -730 7262.0 -715.0Q7293 -700 7320 -672L7249 -601Q7237 -613 7223.0 -620.0Q7209 -627 7187 -627Q7147 -627 7125.5 -605.5Q7104 -584 7104 -544V0ZM6879 -380V-480H7249V-380Z M7530 10Q7458 10 7400.5 -22.5Q7343 -55 7309.5 -112.0Q7276 -169 7276 -240Q7276 -311 7309.0 -367.5Q7342 -424 7398.5 -457.0Q7455 -490 7524 -490Q7591 -490 7642.5 -459.0Q7694 -428 7723.5 -374.0Q7753 -320 7753 -251Q7753 -239 7751.5 -226.5Q7750 -214 7747 -199H7353V-289H7690L7649 -253Q7647 -297 7632.0 -327.0Q7617 -357 7589.5 -373.0Q7562 -389 7522 -389Q7480 -389 7449.0 -371.0Q7418 -353 7401.0 -320.5Q7384 -288 7384 -243Q7384 -198 7402.0 -164.0Q7420 -130 7453.0 -111.5Q7486 -93 7529 -93Q7566 -93 7597.5 -106.0Q7629 -119 7651 -144L7721 -73Q7686 -32 7636.0 -11.0Q7586 10 7530 10Z M8062 10Q7991 10 7933.5 -23.0Q7876 -56 7843.0 -113.0Q7810 -170 7810 -240Q7810 -311 7843.0 -367.5Q7876 -424 7933.5 -457.0Q7991 -490 8062 -490Q8118 -490 8166.5 -468.5Q8215 -447 8249 -407L8177 -334Q8156 -359 8126.5 -371.5Q8097 -384 8062 -384Q8021 -384 7989.5 -365.5Q7958 -347 7940.5 -315.0Q7923 -283 7923 -240Q7923 -198 7940.5 -165.5Q7958 -133 7989.5 -114.5Q8021 -96 8062 -96Q8097 -96 8126.5 -108.5Q8156 -121 8177 -146L8249 -73Q8215 -33 8166.5 -11.5Q8118 10 8062 10Z M8393 0V-680H8503V0ZM8278 -380V-480H8618V-380Z M8748 10Q8716 10 8695.5 -11.5Q8675 -33 8675 -64Q8675 -96 8695.5 -117.0Q8716 -138 8748 -138Q8780 -138 8800.5 -117.0Q8821 -96 8821 -64Q8821 -33 8800.5 -11.5Q8780 10 8748 10Z" fill="#FFFFFF" fill-opacity="0.82"/></g>
</svg>
